<svg width="24" height="24" viewBox="0 0 24 24" fill="none" xmlns="http://www.w3.org/2000/svg">
<g id="octicon:feed-discussion-16" clip-path="url(#clip0_2063_15582)">
<path id="Vector" fill-rule="evenodd" clip-rule="evenodd" d="M12 24C15.1826 24 18.2348 22.7357 20.4853 20.4853C22.7357 18.2348 24 15.1826 24 12C24 8.8174 22.7357 5.76516 20.4853 3.51472C18.2348 1.26428 15.1826 0 12 0C8.8174 0 5.76516 1.26428 3.51472 3.51472C1.26428 5.76516 0 8.8174 0 12C0 15.1826 1.26428 18.2348 3.51472 20.4853C5.76516 22.7357 8.8174 24 12 24ZM6 7.5C6 7.10218 6.15804 6.72064 6.43934 6.43934C6.72064 6.15804 7.10218 6 7.5 6H16.5C16.8978 6 17.2794 6.15804 17.5607 6.43934C17.842 6.72064 18 7.10218 18 7.5V15C18 15.3978 17.842 15.7794 17.5607 16.0607C17.2794 16.342 16.8978 16.5 16.5 16.5H13.0605L10.281 19.281C10.1761 19.3862 10.0423 19.4578 9.89669 19.4869C9.75102 19.5159 9.60001 19.5011 9.4628 19.4442C9.32559 19.3873 9.20836 19.291 9.12597 19.1674C9.04358 19.0438 8.99973 18.8985 9 18.75V16.5H7.5C7.10218 16.5 6.72064 16.342 6.43934 16.0607C6.15804 15.7794 6 15.3978 6 15V7.5Z" fill="#6D29FE"/>
</g>
<defs>
<clipPath id="clip0_2063_15582">
<rect width="24" height="24" fill="white"/>
</clipPath>
</defs>
</svg>
