<svg width="24" height="24" viewBox="0 0 24 24" fill="none" xmlns="http://www.w3.org/2000/svg">
<g id="emojione-v1:electric-plug" clip-path="url(#clip0_2057_15739)">
<path id="Vector" d="M8.70391 10.0967C8.85023 10.2429 8.9663 10.4165 9.04549 10.6076C9.12467 10.7987 9.16543 11.0036 9.16543 11.2104C9.16543 11.4173 9.12467 11.6221 9.04549 11.8132C8.9663 12.0043 8.85023 12.1779 8.70391 12.3242C8.55772 12.4705 8.38412 12.5865 8.19305 12.6657C8.00198 12.7449 7.79718 12.7857 7.59035 12.7857C7.38352 12.7857 7.17872 12.7449 6.98765 12.6657C6.79658 12.5865 6.62299 12.4705 6.47679 12.3242L0.49629 6.34405C0.349808 6.19796 0.233591 6.0244 0.154294 5.83331C0.0749972 5.64223 0.0341797 5.43738 0.0341797 5.23049C0.0341797 5.02361 0.0749972 4.81876 0.154294 4.62767C0.233591 4.43659 0.349808 4.26303 0.49629 4.11693C0.791731 3.82194 1.19217 3.65625 1.60966 3.65625C2.02716 3.65625 2.4276 3.82194 2.72304 4.11693L8.70391 10.0967Z" fill="#BCBDBF"/>
<path id="Vector_2" d="M0.346746 4.29688C0.12234 4.59912 0.0139311 4.97189 0.0412551 5.34734C0.0685791 5.72278 0.229819 6.07594 0.495621 6.3425L6.47575 12.3226C7.03412 12.8818 7.90487 12.9271 8.52137 12.4708L0.346746 4.29688Z" fill="#A7A8AC"/>
<path id="Vector_3" d="M5.97798 0.402861C5.83182 0.25657 5.65825 0.140519 5.46722 0.0613396C5.27618 -0.0178395 5.07141 -0.0585938 4.86461 -0.0585938C4.65781 -0.0585937 4.45304 -0.0178395 4.262 0.0613396C4.07096 0.140519 3.8974 0.25657 3.75123 0.402861C3.60474 0.548837 3.48851 0.722295 3.4092 0.913289C3.32989 1.10428 3.28906 1.30906 3.28906 1.51586C3.28906 1.72267 3.32989 1.92744 3.4092 2.11843C3.48851 2.30943 3.60474 2.48289 3.75123 2.62886L9.73136 8.61086C10.0268 8.90585 10.4272 9.07154 10.8447 9.07154C11.2622 9.07154 11.6627 8.90585 11.9581 8.61086C12.1046 8.46476 12.2208 8.2912 12.3001 8.10012C12.3794 7.90903 12.4202 7.70418 12.4202 7.4973C12.4202 7.29041 12.3794 7.08556 12.3001 6.89448C12.2208 6.70339 12.1046 6.52983 11.9581 6.38374L5.97798 0.402861Z" fill="#BCBDBF"/>
<path id="Vector_4" d="M11.7768 8.75944C11.16 9.21619 10.2896 9.17006 9.73122 8.61319L3.7511 2.63156C3.48495 2.3652 3.32346 2.012 3.29613 1.63644C3.2688 1.26089 3.37744 0.888032 3.60222 0.585938L11.7768 8.75944Z" fill="#A7A8AC"/>
<path id="Vector_5" d="M14.0028 5.06092C12.7867 3.8448 10.7827 5.6898 8.40742 8.06467C6.03142 10.4425 4.18792 12.4458 5.40367 13.6615C6.3333 14.5927 9.44955 15.4409 11.9215 14.7112C13.6822 16.4729 15.4435 18.2339 17.2053 19.9949C18.3445 21.1334 19.4845 22.2742 20.623 23.4134C20.6965 23.4862 20.7783 23.5248 20.8038 23.4997C21.4488 22.8554 22.0912 22.2115 22.7354 21.5669C23.1018 21.1998 23.4712 20.83 23.839 20.4629C23.8645 20.4389 23.8263 20.3575 23.7528 20.2837C21.9622 18.4915 20.1708 16.699 18.3779 14.9088C17.269 13.7984 16.1602 12.6895 15.0513 11.5807C15.7803 9.10792 14.9339 5.99317 14.0013 5.0613" fill="#243438"/>
<path id="Vector_6" d="M11.9227 14.7075C11.9227 14.7075 12.8797 14.0996 13.3053 13.7362L12.1691 12.6C10.4921 13.4111 8.71532 13.965 6.90032 13.2618C6.12819 12.9607 5.52819 12.48 5.23944 11.8867C4.92744 12.5812 4.92894 13.1805 5.40594 13.6578C6.33669 14.5878 9.45219 15.4368 11.9234 14.7071L11.9227 14.7075ZM12.4196 15.2051L20.6257 23.412C20.6984 23.484 20.7817 23.5233 20.8064 23.4982L21.9352 22.3657L13.7343 14.1645C13.3191 14.5389 12.8799 14.8859 12.4196 15.2032" fill="#34484C"/>
<path id="Vector_7" d="M13.8864 4.72417C14.6536 5.49142 13.3014 8.08979 10.8676 10.5235C8.43239 12.9607 5.83552 14.311 5.06752 13.5423C4.30027 12.7735 5.65177 10.1782 8.08627 7.74217C10.5215 5.30691 13.1184 3.95467 13.8871 4.72342" fill="#243438"/>
<path id="Vector_8" d="M13.4588 5.76368C14.0585 6.3603 12.8956 8.4933 10.8668 10.5232C8.8362 12.5531 6.70433 13.7137 6.10733 13.1129C5.50733 12.5152 6.66758 10.3841 8.69708 8.35193C10.7266 6.3228 12.8596 5.16368 13.4588 5.76368Z" fill="#34484C"/>
<path id="Vector_9" d="M11.577 15.2741C12.7635 16.4612 13.9501 17.6482 15.1369 18.8351C15.8944 19.5888 16.6444 20.3426 17.4019 21.1001C17.4499 21.1492 17.5189 21.1593 17.5523 21.1256L20.1147 18.5639C20.6029 18.0749 21.0923 17.5874 21.5794 17.0984C21.6139 17.0639 21.6027 16.9961 21.5539 16.9481C20.3678 15.7608 19.1813 14.5743 17.9933 13.3889C17.2395 12.6314 16.4858 11.8777 15.7283 11.1239C15.708 11.102 15.6816 11.0866 15.6525 11.0797H15.6484C15.6465 11.0782 15.6465 11.0789 15.6435 11.0797C15.6203 11.0756 15.5963 11.0789 15.5775 11.0981L13.0159 13.6589L11.5504 15.1252C11.517 15.1586 11.5283 15.2279 11.5763 15.2759" fill="#243438"/>
<path id="Vector_10" d="M11.5764 15.2736C12.7628 16.4608 13.9494 17.6478 15.1362 18.8346C15.8937 19.5884 16.6437 20.3421 17.4012 21.0996C17.4492 21.1487 17.5182 21.1589 17.5516 21.1251C18.4059 20.2716 13.8691 12.8039 13.0179 13.6577L11.5524 15.124C11.519 15.1574 11.5302 15.2267 11.5782 15.2747" fill="#34484C"/>
</g>
<defs>
<clipPath id="clip0_2057_15739">
<rect width="24" height="24" fill="white"/>
</clipPath>
</defs>
</svg>
