<svg width="24" height="24" viewBox="0 0 24 24" fill="none" xmlns="http://www.w3.org/2000/svg">
<g id="flat-color-icons:faq">
<path id="Vector" d="M7.5 20H19L22 23V12.5C22 11.4 21.1 10.5 20 10.5H7.5C6.4 10.5 5.5 11.4 5.5 12.5V18C5.5 19.1 6.4 20 7.5 20Z" fill="#558B2F"/>
<path id="Vector_2" d="M14.4004 16.3992H12.6004L12.2504 17.4492H11.1504L13.0004 12.4492H13.9504L15.8004 17.4492H14.7004L14.4004 16.3992ZM12.8504 15.5992H14.1004L13.5004 13.6992L12.8504 15.5992Z" fill="#1B5E20"/>
<path id="Vector_3" d="M16.5 12.5H5L2 15.5V4C2 2.9 2.9 2 4 2H16.5C17.6 2 18.5 2.9 18.5 4V10.5C18.5 11.6 17.6 12.5 16.5 12.5Z" fill="#8BC34A"/>
<path id="Vector_4" d="M12.6998 7.09922C12.6998 7.59922 12.5998 7.99922 12.4498 8.34922C12.2998 8.69922 12.0998 8.99922 11.7998 9.19922L12.6498 9.84922L11.9998 10.4492L10.8998 9.59922C10.7998 9.59922 10.6498 9.64922 10.4998 9.64922C10.1998 9.64922 9.8998 9.59922 9.5998 9.49922C9.3498 9.39922 9.0998 9.19922 8.8998 8.99922C8.6998 8.79922 8.5498 8.49922 8.4498 8.19922C8.3498 7.89922 8.2998 7.54922 8.2998 7.14922V6.94922C8.2998 6.54922 8.3498 6.19922 8.4498 5.89922C8.5498 5.59922 8.6998 5.29922 8.8998 5.09922C9.0998 4.89922 9.2998 4.69922 9.5998 4.59922C9.8498 4.49922 10.1498 4.44922 10.4998 4.44922C10.7998 4.44922 11.0998 4.49922 11.3998 4.59922C11.6498 4.69922 11.8998 4.89922 12.0998 5.09922C12.2998 5.29922 12.4498 5.59922 12.5498 5.89922C12.6498 6.19922 12.6998 6.54922 12.6998 6.94922V7.09922ZM11.5998 6.84922C11.5998 6.29922 11.4998 5.89922 11.2998 5.64922C11.0998 5.34922 10.8498 5.24922 10.4998 5.24922C10.1498 5.24922 9.8498 5.39922 9.6998 5.64922C9.4998 5.94922 9.3998 6.34922 9.3998 6.84922V7.09922C9.3998 7.34922 9.4498 7.59922 9.4998 7.79922C9.5498 7.99922 9.5998 8.19922 9.6998 8.29922C9.7998 8.44922 9.8998 8.54922 10.0498 8.59922C10.1998 8.64922 10.3498 8.69922 10.4998 8.69922C10.8498 8.69922 11.1498 8.54922 11.2998 8.29922C11.4998 7.99922 11.5998 7.59922 11.5998 7.04922V6.84922Z" fill="white"/>
</g>
</svg>
