<svg width="24" height="24" viewBox="0 0 24 24" fill="none" xmlns="http://www.w3.org/2000/svg">
<g id="fluent-emoji-flat:handshake">
<g id="Group">
<path id="Vector" d="M8.55424 4.61489C4.59799 4.12739 3.18724 6.11489 2.50774 7.02914C0.655986 9.75914 1.76899 12.7591 3.11674 14.2014C3.11674 14.2014 10.6872 21.5724 10.898 21.7711C11.1087 21.9706 11.6075 22.6501 12.8082 22.4566C13.8567 22.2879 14.156 21.0211 14.156 21.0211C14.156 21.0211 14.93 21.6526 16.043 21.0211C16.91 20.5291 16.8747 19.5451 16.8747 19.5451C16.8747 19.5451 17.8032 20.0101 18.797 19.1701C19.691 18.4126 19.1367 17.0836 19.1367 17.0836C19.1367 17.0836 19.9392 17.2156 20.5077 16.5916C21.2765 15.7479 21.0117 14.6814 20.5077 14.2006L14.7185 7.87289L14.273 5.52914L8.55424 4.61489Z" fill="#FFC83D"/>
<path id="Vector_2" d="M20.0299 16.945L18.3604 15.2522C18.3258 15.2172 18.2846 15.1893 18.2392 15.1701C18.1938 15.151 18.1451 15.1409 18.0958 15.1406C18.0466 15.1403 17.9977 15.1497 17.9521 15.1683C17.9064 15.1868 17.8649 15.2142 17.8298 15.2488C17.7947 15.2835 17.7668 15.3246 17.7477 15.3701C17.7286 15.4155 17.7185 15.4642 17.7182 15.5135C17.7179 15.5627 17.7273 15.6116 17.7459 15.6572C17.7644 15.7029 17.7918 15.7444 17.8264 15.7795L19.1494 17.1205C19.1454 17.1089 19.1411 17.0974 19.1367 17.086C19.1367 17.086 19.5732 17.158 20.0299 16.945ZM17.9832 19.6127L16.2507 17.6905C16.1841 17.6166 16.0908 17.5722 15.9914 17.567C15.892 17.5619 15.7947 17.5965 15.7208 17.6631C15.6469 17.7297 15.6025 17.823 15.5974 17.9224C15.5922 18.0217 15.6268 18.1191 15.6934 18.193L16.9384 19.5737C17.0877 19.6307 17.4859 19.7477 17.9832 19.6135V19.6127ZM15.4317 21.2635L14.0772 19.8287C14.0434 19.7929 14.0028 19.7641 13.9578 19.744C13.9129 19.7239 13.8644 19.7128 13.8152 19.7114C13.7659 19.71 13.7169 19.7183 13.6709 19.7359C13.6249 19.7534 13.5827 19.7799 13.5469 19.8137C13.5111 19.8475 13.4823 19.8881 13.4622 19.9331C13.4421 19.978 13.431 20.0265 13.4296 20.0757C13.4282 20.125 13.4365 20.174 13.4541 20.22C13.4717 20.2661 13.4981 20.3082 13.5319 20.344L14.2099 21.0617C14.3592 21.1592 14.8062 21.3992 15.4317 21.2635ZM13.8019 21.79C13.2327 21.9422 12.1767 21.9895 11.4492 21.211L10.8672 21.7435L10.8979 21.7735C10.9204 21.7945 10.9444 21.82 10.9729 21.8485C11.2189 22.1035 11.7304 22.633 12.8082 22.459C13.2747 22.384 13.5927 22.0915 13.8019 21.79Z" fill="#D67D00"/>
<path id="Vector_3" d="M4.78079 5.10825C3.51479 6.73275 1.56554 10.9395 5.01554 13.827L3.92954 14.9925L3.11654 14.2013C1.76954 12.7598 0.655786 9.75975 2.50754 7.029L2.53754 6.98775C2.93129 6.45825 3.56204 5.6085 4.75004 5.0625L4.78079 5.1075V5.10825Z" fill="#F59F00"/>
<path id="Vector_4" d="M12.9377 17.7651C13.84 18.8076 12.7127 20.1366 12.1877 20.6946L4.25195 12.4371C5.73245 10.9356 6.71045 10.7849 7.37195 11.4366C8.03195 12.0884 7.72295 12.5496 7.72295 12.5496C7.72295 12.5496 8.61845 12.0411 9.5627 12.9719C10.5077 13.9026 9.8552 14.6121 9.8552 14.6121C9.8552 14.6121 10.8302 14.4366 11.5202 15.2099C12.2927 16.0776 11.8007 17.0849 11.8007 17.0849C11.8007 17.0849 12.3932 17.1359 12.9377 17.7651Z" fill="#D67D00"/>
<path id="Vector_5" d="M9.32816 5.99972C11.7537 5.02697 15.4332 4.53497 17.1207 4.51172C18.2689 4.51172 19.7314 4.78922 21.2809 6.60872C23.7559 9.51497 21.9019 12.8315 20.4372 14.1792V13.1247C20.4372 13.1247 14.8077 8.22272 14.6247 8.05022C14.2872 7.73147 12.8982 7.82822 12.7497 7.87472C12.2967 8.01572 11.5122 8.24972 10.4997 8.62472C9.67616 8.92997 9.02291 8.68322 8.75366 8.05022C8.48366 7.41797 8.12216 6.48272 9.32741 5.99972H9.32816Z" fill="#FFC83D"/>
<path id="Vector_6" d="M21.2321 13.2812C20.9961 13.6047 20.7299 13.9051 20.4371 14.1782C18.3671 12.3737 14.1536 8.68441 13.8161 8.36566C13.4786 8.04691 13.0856 8.06116 12.9371 8.10766C12.0552 8.38407 11.18 8.68115 10.3121 8.99866C9.48856 9.30391 8.65981 8.68216 8.38981 8.04916C8.14381 7.47091 8.12356 6.63991 9.04381 6.13216L9.51706 5.92441L9.55456 5.91016C8.08981 7.01116 9.38356 8.35591 10.5933 8.20216C11.0186 8.14741 11.7183 8.00266 12.3978 7.82716C12.6678 7.75666 12.9326 7.63291 13.1823 7.51666C13.6511 7.29691 14.0673 7.10266 14.3673 7.33441C15.4923 8.20816 18.8493 11.0604 21.2328 13.2812H21.2321Z" fill="#D67D00"/>
<path id="Vector_7" d="M6.61437 12.6584C6.4818 12.4866 6.3167 12.3426 6.12849 12.2347C5.94028 12.1267 5.73265 12.0569 5.51745 12.0292C5.30224 12.0014 5.08369 12.0164 4.87427 12.0731C4.66484 12.1299 4.46864 12.2273 4.29687 12.3599L2.85837 13.5741C2.19612 14.1254 2.02437 15.1566 2.50812 15.8256C2.94612 16.4316 3.61812 16.6821 4.23537 16.5066C3.96162 17.1329 3.98487 17.9339 4.51062 18.3741C5.00187 18.7844 5.60862 19.0656 6.21687 18.8759C6.15837 19.2771 6.27687 19.7166 6.68937 20.1546C7.07937 20.5679 7.64637 20.7741 8.25462 20.6369C8.17437 21.0659 8.31012 21.5429 8.81187 22.0266C9.42612 22.6191 10.3719 22.6701 11.2606 21.8541L11.8396 21.1791C12.3046 20.5941 12.9481 19.5771 11.9866 18.7131C11.6544 18.4146 11.2726 18.2489 10.8759 18.2481C11.0911 17.7231 11.0874 17.0796 10.4634 16.4631C10.0734 16.0784 9.59562 15.9111 9.06837 16.0371C9.35337 15.4311 9.34662 14.8124 8.77587 14.2484C8.25762 13.7361 7.61862 13.4931 6.79362 13.9559C6.93912 13.5089 6.90462 13.0349 6.61362 12.6576L6.61437 12.6584Z" fill="#FFC83D"/>
<path id="Vector_8" d="M6.77542 12.9297L3.23242 16.4284C3.54592 16.5679 3.88717 16.6002 4.21492 16.5124L6.81667 13.9429L6.79492 13.9549C6.90742 13.6107 6.91192 13.2499 6.77542 12.9297ZM9.18442 14.8677L5.21992 18.8119C5.53867 18.9402 5.87842 18.9814 6.21892 18.8757L9.07417 16.0362L9.07042 16.0369C9.25417 15.6469 9.31642 15.2509 9.18517 14.8677H9.18442ZM10.9297 17.1709L7.24117 20.5444C7.54417 20.6772 7.88992 20.7177 8.24992 20.6382L10.8847 18.2284C11.0122 17.9082 11.0572 17.5444 10.9297 17.1709Z" fill="#D67D00"/>
</g>
</g>
</svg>
