<svg width="24" height="24" viewBox="0 0 24 24" fill="none" xmlns="http://www.w3.org/2000/svg">
<g id="fluent:home-checkmark-16-filled">
<path id="Vector" d="M10.9695 1.91001C11.248 1.64671 11.6167 1.5 12 1.5C12.3833 1.5 12.752 1.64671 13.0305 1.91001L20.2965 8.77251C20.7465 9.19701 21 9.78801 21 10.4075V18.7505C21 19.3472 20.7629 19.9195 20.341 20.3415C19.919 20.7635 19.3467 21.0005 18.75 21.0005H5.25C4.65352 21.0005 4.08145 20.7637 3.65954 20.342C3.23763 19.9204 3.0004 19.3485 3 18.752V10.406C3 9.78801 3.255 9.19701 3.705 8.77251L10.9695 1.91001ZM16.2795 10.2905C16.3538 10.222 16.4136 10.1391 16.4551 10.0469C16.4966 9.95476 16.519 9.85512 16.521 9.75404C16.5231 9.65295 16.5046 9.5525 16.4668 9.45872C16.4291 9.36494 16.3727 9.27977 16.3012 9.20833C16.2296 9.13689 16.1444 9.08065 16.0505 9.04299C15.9567 9.00534 15.8562 8.98704 15.7551 8.98921C15.654 8.99137 15.5544 9.01396 15.4623 9.0556C15.3702 9.09724 15.2874 9.15707 15.219 9.23151L10.5 13.946L8.781 12.2285C8.63974 12.0917 8.4504 12.0158 8.25374 12.0172C8.05708 12.0187 7.86885 12.0973 7.72959 12.2361C7.59033 12.375 7.51119 12.563 7.50921 12.7597C7.50723 12.9563 7.58257 13.1459 7.719 13.2875L9.969 15.536C10.0387 15.6059 10.1214 15.6613 10.2125 15.6991C10.3037 15.7369 10.4013 15.7564 10.5 15.7564C10.5987 15.7564 10.6963 15.7369 10.7875 15.6991C10.8786 15.6613 10.9613 15.6059 11.031 15.536L16.281 10.2905H16.2795Z" fill="#346DA1"/>
</g>
</svg>
