<svg width="24" height="24" viewBox="0 0 24 24" fill="none" xmlns="http://www.w3.org/2000/svg">
<g id="bxs:plane-alt">
<path id="Vector" d="M3.414 13.7762L2 15.1902L6.949 17.3112L9.071 22.2612L10.485 20.8472L9.778 17.3112L13.091 13.9982L16.701 21.7022L18.04 20.3632L16.85 10.2402L19.678 7.41123C19.869 7.22674 20.0214 7.00605 20.1262 6.76204C20.231 6.51803 20.2862 6.25559 20.2885 5.99004C20.2908 5.72448 20.2402 5.46112 20.1396 5.21532C20.0391 4.96953 19.8906 4.74623 19.7028 4.55844C19.515 4.37066 19.2917 4.22215 19.0459 4.12159C18.8001 4.02103 18.5368 3.97042 18.2712 3.97273C18.0056 3.97504 17.7432 4.03021 17.4992 4.13503C17.2552 4.23985 17.0345 4.39221 16.85 4.58323L13.947 7.48623L3.824 6.29523L2.559 7.56123L10.203 11.2312L6.95 14.4842L3.414 13.7762Z" fill="black"/>
</g>
</svg>
