<svg width="24" height="24" viewBox="0 0 24 24" fill="none" xmlns="http://www.w3.org/2000/svg">
<g id="clarity:store-solid" clip-path="url(#clip0_2057_15719)">
<path id="Vector" d="M18.6667 20.0013H10.6667V14.668H9.33333V20.0013H5.33333V14.668H4V20.0013C4 20.3549 4.14048 20.6941 4.39052 20.9441C4.64057 21.1942 4.97971 21.3346 5.33333 21.3346H18.6667C19.0203 21.3346 19.3594 21.1942 19.6095 20.9441C19.8595 20.6941 20 20.3549 20 20.0013V14.668H18.6667V20.0013Z" fill="#346DA1"/>
<path id="Vector_2" d="M22.5264 8.84797L19.8063 3.40797C19.696 3.18583 19.5258 2.99888 19.315 2.86816C19.1042 2.73743 18.8611 2.6681 18.613 2.66797H5.38635C5.13829 2.6681 4.89519 2.73743 4.68438 2.86816C4.47357 2.99888 4.3034 3.18583 4.19302 3.40797L1.47302 8.84797C1.38015 9.0343 1.3322 9.23978 1.33302 9.44797V11.5013C1.33241 11.8128 1.44091 12.1148 1.63968 12.3546C1.93346 12.6914 2.29628 12.961 2.70351 13.145C3.11073 13.3291 3.5528 13.4233 3.99968 13.4213C4.72886 13.4224 5.43581 13.1703 5.99968 12.708C6.56356 13.1706 7.27035 13.4234 7.99968 13.4234C8.72902 13.4234 9.43581 13.1706 9.99968 12.708C10.5636 13.1706 11.2703 13.4234 11.9997 13.4234C12.729 13.4234 13.4358 13.1706 13.9997 12.708C14.5636 13.1706 15.2703 13.4234 15.9997 13.4234C16.729 13.4234 17.4358 13.1706 17.9997 12.708C18.6291 13.2248 19.4344 13.4774 20.2463 13.4128C21.0581 13.3481 21.8133 12.9712 22.353 12.3613C22.5542 12.1223 22.6651 11.8203 22.6663 11.508V9.44797C22.6672 9.23978 22.6192 9.0343 22.5264 8.84797ZM9.99968 9.6013V10.6146L9.45302 11.3346C9.2852 11.5634 9.06588 11.7494 8.81281 11.8776C8.55974 12.0058 8.28004 12.0726 7.99635 12.0726C7.71266 12.0726 7.43296 12.0058 7.17989 11.8776C6.92682 11.7494 6.7075 11.5634 6.53968 11.3346L5.99968 10.588V9.6013L7.72635 4.0013H10.6664L9.99968 9.6013ZM17.9997 10.588L17.4597 11.3346C17.2919 11.5634 17.0725 11.7494 16.8195 11.8776C16.5664 12.0058 16.2867 12.0726 16.003 12.0726C15.7193 12.0726 15.4396 12.0058 15.1866 11.8776C14.9335 11.7494 14.7142 11.5634 14.5464 11.3346L13.9997 10.588V9.6013L13.333 4.0013H16.2997L17.9997 9.6013V10.588Z" fill="#346DA1"/>
</g>
<defs>
<clipPath id="clip0_2057_15719">
<rect width="24" height="24" fill="white"/>
</clipPath>
</defs>
</svg>
