<svg width="24" height="24" viewBox="0 0 24 24" fill="none" xmlns="http://www.w3.org/2000/svg">
<g id="emojione-v1:video-game" clip-path="url(#clip0_2057_15687)">
<path id="Vector" d="M14.8799 6.16669C14.909 6.27405 14.9589 6.37464 15.0269 6.46269C15.0949 6.55073 15.1795 6.62452 15.2761 6.67983C15.3726 6.73513 15.479 6.77087 15.5894 6.78501C15.6997 6.79914 15.8117 6.79138 15.919 6.76219L18.7645 5.99081C18.8718 5.96186 18.9724 5.91205 19.0604 5.84422C19.1484 5.77639 19.2222 5.69187 19.2776 5.59551C19.3329 5.49914 19.3687 5.39281 19.3829 5.28259C19.3971 5.17238 19.3895 5.06045 19.3604 4.95319L18.844 3.04369C18.7852 2.82679 18.6427 2.64213 18.4478 2.53032C18.2528 2.41851 18.0215 2.38869 17.8045 2.44744L14.959 3.21881C14.7424 3.27788 14.558 3.42043 14.4463 3.61522C14.3346 3.81001 14.3047 4.04113 14.3632 4.25794L14.8799 6.16669ZM9.15405 6.21881C9.09491 6.43518 8.9524 6.61928 8.75776 6.73076C8.56312 6.84224 8.33223 6.87202 8.11567 6.81356L5.27055 6.04219C5.16319 6.01332 5.06258 5.96356 4.97447 5.89576C4.88637 5.82797 4.81249 5.74347 4.75708 5.64709C4.70166 5.55071 4.66579 5.44436 4.65152 5.33411C4.63726 5.22385 4.64487 5.11187 4.67392 5.00456L5.19067 3.09544C5.24956 2.87863 5.39215 2.69408 5.5871 2.58241C5.78204 2.47073 6.01336 2.44106 6.23017 2.49994L9.07492 3.27131C9.18228 3.30031 9.28288 3.35017 9.37097 3.41805C9.45906 3.48593 9.53291 3.5705 9.58831 3.66692C9.64372 3.76335 9.67958 3.86974 9.69386 3.98003C9.70815 4.09031 9.70056 4.20233 9.67155 4.30969L9.15405 6.21881Z" fill="#405866"/>
<path id="Vector_2" d="M11.416 4.004C11.6226 4.5635 11.8769 5.30525 12.016 6.08C12.1638 6.9155 11.8521 7.37525 11.266 7.889C11.0943 8.03787 11.0358 8.258 11.1115 8.46462C11.1914 8.67575 11.398 8.8235 11.6148 8.8235C11.7396 8.8235 11.8593 8.777 11.9609 8.68775C12.4608 8.25237 12.8343 7.84587 13.0315 7.27437C13.2663 6.599 13.0746 5.81075 12.9329 5.23512C12.7746 4.59312 12.5444 3.965 12.3201 3.35637L12.2579 3.1895C11.9241 2.28275 11.8446 1.59987 12.4158 0.789498C12.5316 0.622624 12.5485 0.428748 12.4604 0.256623C12.2886 -0.0737516 11.7663 -0.131502 11.5405 0.189498C11.2143 0.651498 10.8828 1.23237 10.8959 2.02962C10.9079 2.6495 11.1265 3.22962 11.338 3.79137L11.4179 4.00325" fill="#354A54"/>
<path id="Vector_3" d="M11.5289 8.48344C11.452 8.27794 11.5113 8.05744 11.6823 7.90819C12.2695 7.39519 12.5815 6.93469 12.4323 6.09994C12.2946 5.32519 12.0396 4.58494 11.8334 4.02394L11.7535 3.81132C11.5435 3.24994 11.3238 2.66982 11.3125 2.04994C11.2983 1.25119 11.6298 0.671441 11.9568 0.209816C12.0085 0.134441 12.0775 0.0815661 12.1529 0.0459411C11.9286 -0.0523089 11.6391 -0.00918388 11.4858 0.209816C11.1591 0.671066 10.8291 1.25119 10.8411 2.04994C10.8539 2.66982 11.0706 3.24994 11.2833 3.81132L11.3616 4.02394C11.5698 4.58344 11.8244 5.32519 11.9624 6.09994C12.1101 6.93469 11.7985 7.39519 11.2124 7.90819C11.0399 8.05744 10.9814 8.27794 11.059 8.48344C11.137 8.69532 11.3436 8.84344 11.56 8.84344C11.641 8.84344 11.7201 8.82057 11.7948 8.78194C11.672 8.71896 11.5771 8.61256 11.5285 8.48344" fill="#405866"/>
<path id="Vector_4" d="M2.24062 6.18023C5.38462 1.01273 10.1231 4.60748 10.1231 4.60748C10.4302 4.83923 10.9969 5.03048 11.3805 5.03198L12.651 5.03273C13.0361 5.03273 13.6031 4.84223 13.9095 4.60898C13.9095 4.60898 18.6476 1.01498 21.792 6.18098C24.9386 11.3466 23.6707 16.972 23.6707 16.972C23.4476 18.3497 22.7164 19.2689 21.3352 19.1522C19.9582 19.0371 16.9699 15.4442 16.9699 15.4442C16.7239 15.1476 16.2067 14.9054 15.8209 14.9054L8.21362 14.9035C7.82999 14.9035 7.31324 15.1457 7.06649 15.4409C7.06649 15.4409 4.07587 19.0371 2.69887 19.1519C1.31812 19.2674 0.585741 18.3464 0.365617 16.9701C0.365617 16.9709 -0.903759 11.3455 2.24062 6.18023Z" fill="#354A54"/>
<path id="Vector_5" d="M3.92719 16.9492C3.92719 16.9492 2.65781 11.3242 5.80181 6.15898C6.58856 4.86673 7.47469 4.12198 8.36194 3.73235C6.69619 3.15148 4.14694 3.00148 2.20594 6.19048C-0.936935 11.3576 0.33094 16.9815 0.33094 16.9815C0.551815 18.3592 1.28531 19.2787 2.66419 19.1621C3.10969 19.1265 3.72356 18.7237 4.35056 18.1991C4.14356 17.8541 4.00406 17.4304 3.92756 16.9492H3.92719ZM14.9428 5.00885H16.2126C16.5966 5.01035 17.1632 4.81911 17.4699 4.58698C17.4699 4.58698 18.1266 4.08936 19.1128 3.73011C16.4841 2.64148 13.8748 4.61961 13.8748 4.61961C13.8527 4.63573 13.8302 4.65223 13.8062 4.66761C14.1261 4.86148 14.6042 5.00848 14.9424 5.00848L14.9428 5.00885ZM20.5296 15.423C20.2847 15.1264 19.7676 14.8837 19.3824 14.8837L11.7752 14.883C11.6852 14.8845 11.5957 14.896 11.5082 14.9171H15.7869C16.1713 14.9171 16.6896 15.1594 16.9348 15.456C16.9348 15.456 19.9239 19.0504 21.3009 19.1655C22.2201 19.2424 22.8508 18.8602 23.2359 18.1894C21.9167 17.0895 20.5296 15.423 20.5296 15.423Z" fill="#405866"/>
<g id="Group">
<path id="Vector_6" d="M8.90887 8.80256C8.90001 8.68879 8.89638 8.57467 8.89799 8.46056C8.89739 8.44194 8.90193 8.42352 8.91112 8.40731C8.86935 8.32562 8.81675 8.24994 8.75474 8.18231C8.74146 8.16913 8.73177 8.15277 8.72659 8.13478C8.7214 8.1168 8.7209 8.09779 8.72512 8.07956H7.14712V6.49219H5.44237V8.07956H4.07324V9.81056H5.44237V11.0949H7.14712V9.81056H8.81587C8.82562 9.49594 8.90212 9.18131 8.93999 8.86781C8.92188 8.85068 8.91079 8.82742 8.90887 8.80256Z" fill="#A2ABAF"/>
<path id="Vector_7" d="M7.15448 6.44753C7.15448 6.20266 6.95648 6.00391 6.71236 6.00391H5.88698C5.64286 6.00391 5.44336 6.20266 5.44336 6.44753C5.44336 6.69166 5.64248 6.89041 5.88698 6.89041H6.71236C6.77047 6.89036 6.828 6.87886 6.88167 6.85658C6.93534 6.8343 6.98409 6.80166 7.02514 6.76054C7.0662 6.71941 7.09875 6.6706 7.12094 6.6169C7.14314 6.56319 7.15453 6.50564 7.15448 6.44753Z" fill="#A2ABAF"/>
<path id="Vector_8" d="M4.07324 9.78422V8.07984H5.42924V6.85547H7.16024V8.07984H8.74837V9.78422H7.16024V11.0952H5.42924V9.78422H4.07324Z" fill="#A2ABAF"/>
<path id="Vector_9" d="M8.79151 9.78665C9.03601 9.78665 9.23438 9.58827 9.23438 9.3434V8.51877C9.22968 8.40447 9.18096 8.29641 9.09842 8.21719C9.01588 8.13798 8.90591 8.09375 8.79151 8.09375C8.67711 8.09375 8.56714 8.13798 8.4846 8.21719C8.40206 8.29641 8.35334 8.40447 8.34863 8.51877V9.3434C8.34853 9.4016 8.35992 9.45925 8.38214 9.51305C8.40435 9.56685 8.43697 9.61573 8.47811 9.65691C8.51924 9.69808 8.5681 9.73074 8.62188 9.753C8.67566 9.77526 8.7333 9.7867 8.79151 9.78665Z" fill="#A2ABAF"/>
<path id="Vector_10" d="M3.67979 9.08497C3.69141 9.19934 3.69141 9.31222 3.69141 9.42659C3.69197 9.44502 3.68729 9.46322 3.67791 9.47909C3.71841 9.55822 3.76979 9.63397 3.83316 9.70484C3.86279 9.73709 3.87216 9.77422 3.86354 9.80684H5.44116V11.3946H7.14704V9.80684H8.51541V8.07622H7.14704V6.79297H5.44116V8.07622H3.77241C3.76379 8.39122 3.68691 8.70547 3.64941 9.01859C3.66715 9.03637 3.67793 9.05992 3.67979 9.08497Z" fill="#A2ABAF"/>
<path id="Vector_11" d="M5.43457 11.4393C5.43457 11.6842 5.63407 11.8833 5.88007 11.8833H6.70357C6.94807 11.8833 7.1472 11.6842 7.1472 11.4393C7.1472 11.196 6.94807 10.9961 6.70357 10.9961H5.88007C5.63407 10.9961 5.43457 11.196 5.43457 11.4393Z" fill="#A2ABAF"/>
<path id="Vector_12" d="M8.51595 8.10209V9.80647H7.15995V11.0316H5.4282V9.80647H3.84082V8.10209H5.4282V6.79297H7.15995V8.10209H8.51595Z" fill="#A2ABAF"/>
<path id="Vector_13" d="M3.79797 8.09766C3.73983 8.09766 3.68226 8.10912 3.62854 8.13138C3.57483 8.15364 3.52604 8.18627 3.48494 8.22739C3.44385 8.26852 3.41126 8.31735 3.38904 8.37108C3.36683 8.42481 3.35542 8.48239 3.35547 8.54053V9.36478C3.35547 9.48224 3.40213 9.59489 3.48518 9.67794C3.56824 9.761 3.68089 9.80766 3.79834 9.80766C3.9158 9.80766 4.02845 9.761 4.1115 9.67794C4.19456 9.59489 4.24122 9.48224 4.24122 9.36478V8.54053C4.24127 8.48233 4.22983 8.42468 4.20757 8.37091C4.18531 8.31713 4.15266 8.26827 4.11148 8.22713C4.07031 8.18599 4.02142 8.15338 3.96762 8.13116C3.91383 8.10894 3.85617 8.09756 3.79797 8.09766Z" fill="#A2ABAF"/>
</g>
<g id="Group_2">
<path id="Vector_14" d="M8.70041 8.64481C8.69058 8.53121 8.6862 8.41721 8.68728 8.30319C8.68728 8.28256 8.69328 8.26531 8.70041 8.25069C8.65904 8.16894 8.60668 8.09324 8.54478 8.02569C8.53198 8.01226 8.52261 7.99594 8.51746 7.97812C8.5123 7.9603 8.51151 7.9415 8.51516 7.92331H6.93903V6.33594H5.23428V7.92331H3.86328V9.65506H5.23428V10.9376H6.93903V9.65506H8.60628C8.61603 9.33894 8.69328 9.02431 8.73041 8.71119C8.71255 8.69353 8.70186 8.66988 8.70041 8.64481Z" fill="#CBD5DC"/>
<path id="Vector_15" d="M6.94242 6.29444C6.94242 6.05031 6.74367 5.85156 6.49955 5.85156H5.67455C5.61644 5.85161 5.55891 5.86311 5.50524 5.88539C5.45157 5.90767 5.40282 5.94031 5.36176 5.98143C5.32071 6.02256 5.28815 6.07137 5.26596 6.12507C5.24377 6.17878 5.23237 6.23633 5.23242 6.29444C5.23232 6.35258 5.24368 6.41017 5.26585 6.46392C5.28802 6.51767 5.32057 6.56652 5.36163 6.60768C5.40269 6.64885 5.45146 6.68152 5.50515 6.70382C5.55884 6.72613 5.61641 6.73764 5.67455 6.73769H6.49955C6.74367 6.73769 6.94242 6.53931 6.94242 6.29444Z" fill="#CBD5DC"/>
<path id="Vector_16" d="M3.86133 9.63188V7.92675H5.21845V6.70312H6.94908V7.92675H8.5372V9.63188H6.94908V10.941H5.21845V9.63188H3.86133Z" fill="#CBD5DC"/>
<path id="Vector_17" d="M8.57959 9.63691C8.82634 9.63691 9.02397 9.43779 9.02397 9.19291V8.36866C9.02402 8.31036 9.01255 8.25263 8.99021 8.19877C8.96788 8.14492 8.93513 8.09601 8.89383 8.05486C8.85254 8.0137 8.80352 7.98112 8.74959 7.95896C8.69567 7.93681 8.63789 7.92554 8.57959 7.92579C8.33622 7.92579 8.13672 8.12341 8.13672 8.36866V9.19291C8.13672 9.43779 8.33622 9.63691 8.57959 9.63691Z" fill="#CBD5DC"/>
<path id="Vector_18" d="M3.46945 8.933C3.4792 9.04663 3.47995 9.16138 3.47995 9.27425C3.47977 9.29281 3.47594 9.31116 3.4687 9.32825C3.50808 9.40737 3.5587 9.482 3.62208 9.55288C3.65208 9.58513 3.6607 9.62225 3.65245 9.65563H5.23008V11.2422H6.93483V9.65563H8.30395V7.92462H6.93483V6.64062H5.23008V7.92462H3.5632C3.55383 8.23962 3.47508 8.55425 3.43945 8.867C3.45653 8.88504 3.46709 8.90827 3.46945 8.933Z" fill="#CBD5DC"/>
<path id="Vector_19" d="M5.22559 11.2851C5.2253 11.3435 5.23653 11.4013 5.25866 11.4552C5.28079 11.5092 5.31337 11.5583 5.35453 11.5996C5.39569 11.6409 5.44462 11.6737 5.49849 11.6961C5.55237 11.7184 5.61014 11.7299 5.66847 11.7299H6.49272C6.60799 11.7265 6.71742 11.6784 6.79778 11.5956C6.87813 11.5129 6.92308 11.4021 6.92308 11.2868C6.92308 11.1715 6.87813 11.0607 6.79778 10.978C6.71742 10.8953 6.60799 10.8471 6.49272 10.8438H5.66847C5.42322 10.8438 5.22559 11.0414 5.22559 11.2851Z" fill="#CBD5DC"/>
<path id="Vector_20" d="M8.30216 7.9505V9.65562H6.94728V10.8792H5.21553V9.65562H3.62891V7.9505H5.21553V6.64062H6.94728V7.9505H8.30216Z" fill="#CBD5DC"/>
<path id="Vector_21" d="M3.58658 7.94531C3.34245 7.94531 3.14258 8.14369 3.14258 8.38969V9.21319C3.14593 9.32856 3.19412 9.43809 3.27692 9.51851C3.35971 9.59893 3.47059 9.64392 3.58602 9.64392C3.70144 9.64392 3.81232 9.59893 3.89511 9.51851C3.97791 9.43809 4.0261 9.32856 4.02945 9.21319V8.38969C4.02945 8.14406 3.83145 7.94531 3.58658 7.94531Z" fill="#CBD5DC"/>
</g>
<g id="Group_3">
<path id="Vector_22" d="M20.467 6.78531C20.467 7.05767 20.3588 7.31888 20.1662 7.51147C19.9736 7.70405 19.7124 7.81225 19.44 7.81225C19.1677 7.81225 18.9065 7.70405 18.7139 7.51147C18.5213 7.31888 18.4131 7.05767 18.4131 6.78531C18.4133 6.51286 18.5216 6.25163 18.7143 6.05898C18.9069 5.86633 19.1681 5.75801 19.4406 5.75781C19.5755 5.75781 19.709 5.7844 19.8336 5.83605C19.9582 5.8877 20.0714 5.9634 20.1667 6.05883C20.2621 6.15426 20.3376 6.26753 20.3892 6.39219C20.4407 6.51685 20.4671 6.65043 20.467 6.78531Z" fill="#FAAA33"/>
<path id="Vector_23" d="M16.6421 8.60653C17.2098 8.60653 17.67 8.14634 17.67 7.57866C17.67 7.01098 17.2098 6.55078 16.6421 6.55078C16.0745 6.55078 15.6143 7.01098 15.6143 7.57866C15.6143 8.14634 16.0745 8.60653 16.6421 8.60653Z" fill="#FAAA33"/>
<path id="Vector_24" d="M21.4949 9.49588C21.4945 9.76859 21.3858 10.03 21.1928 10.2227C20.9998 10.4153 20.7382 10.5235 20.4655 10.5234C20.1964 10.5182 19.9401 10.4077 19.7516 10.2156C19.5632 10.0235 19.4576 9.76517 19.4576 9.49606C19.4576 9.22695 19.5632 8.96858 19.7516 8.77648C19.9401 8.58438 20.1964 8.47389 20.4655 8.46875C20.6005 8.4686 20.7342 8.49505 20.8591 8.54659C20.9839 8.59813 21.0973 8.67374 21.1929 8.76912C21.2885 8.8645 21.3643 8.97777 21.4162 9.10247C21.468 9.22716 21.4947 9.36084 21.4949 9.49588ZM18.6959 10.2894C18.6886 10.557 18.5772 10.8112 18.3854 10.9979C18.1936 11.1846 17.9364 11.2891 17.6687 11.2891C17.401 11.2891 17.1439 11.1846 16.9521 10.9979C16.7602 10.8112 16.6488 10.557 16.6416 10.2894C16.6415 10.1543 16.6679 10.0206 16.7194 9.8958C16.771 9.77099 16.8466 9.65755 16.942 9.56196C17.0374 9.46638 17.1506 9.39051 17.2753 9.3387C17.4 9.28689 17.5337 9.26015 17.6687 9.26C17.8038 9.26015 17.9374 9.28689 18.0621 9.3387C18.1868 9.39051 18.3001 9.46638 18.3955 9.56196C18.4909 9.65755 18.5665 9.77099 18.618 9.8958C18.6696 10.0206 18.696 10.1543 18.6959 10.2894Z" fill="#FAAA33"/>
</g>
</g>
<defs>
<clipPath id="clip0_2057_15687">
<rect width="24" height="24" fill="white"/>
</clipPath>
</defs>
</svg>
