<svg width="23" height="23" viewBox="0 0 23 23" fill="none" xmlns="http://www.w3.org/2000/svg">
<g id="Layer 2">
<g id="Layer 1">
<path id="Vector" d="M6.90865 9.83772L11.2164 5.60469L15.4514 9.9143L17.9579 7.45131L11.2599 0.63524L4.44584 7.33108L6.90874 9.83754L6.90865 9.83772ZM0.169325 11.5334L2.67588 9.06999L5.13878 11.5764L2.63223 14.0394L0.169325 11.5334ZM6.87795 13.347L11.111 17.6545L15.4207 13.4197L17.885 15.9249L17.8838 15.9262L11.0675 22.624L4.37166 15.8099L4.36818 15.8064L6.87822 13.3468L6.87795 13.347ZM17.1886 11.6834L19.6951 9.22028L22.158 11.7267L19.6516 14.1897L17.1886 11.6834Z" fill="#F3BA2F"/>
<path id="Vector_2" d="M13.6833 11.6474L13.6843 11.6474L11.1852 9.1041L9.30538 10.9507L9.08943 11.163L8.64402 11.6008L8.64047 11.6042L8.64396 11.6078L11.1411 14.1493L13.6845 11.6501L13.6857 11.6487L13.6835 11.6474" fill="#F3BA2F"/>
</g>
</g>
</svg>
