<svg width="15" height="15" viewBox="0 0 15 15" fill="none" xmlns="http://www.w3.org/2000/svg">
<g id="Polygon">
<path id="Vector" d="M9.73371 6.07446C9.5424 5.96172 9.29374 5.96172 9.08335 6.07446L7.5913 6.93878L6.5775 7.50248L5.08549 8.36678C4.8942 8.47951 4.64553 8.47951 4.43512 8.36678L3.24915 7.69034C3.05786 7.57761 2.92397 7.37094 2.92397 7.14546V5.81141C2.92397 5.58593 3.03874 5.37925 3.24915 5.26651L4.41599 4.60888C4.60727 4.49614 4.85594 4.49614 5.06635 4.60888L6.2332 5.26651C6.42447 5.37925 6.55838 5.58593 6.55838 5.81141V6.67573L7.57218 6.09325V5.22893C7.57218 5.00346 7.45743 4.79677 7.24701 4.68404L5.08549 3.44393C4.8942 3.33119 4.64553 3.33119 4.43512 3.44393L2.23534 4.68404C2.02493 4.79677 1.91016 5.00346 1.91016 5.22893V7.72794C1.91016 7.95341 2.02493 8.16011 2.23534 8.27285L4.43512 9.51295C4.6264 9.62568 4.87507 9.62568 5.08549 9.51295L6.5775 8.66741L7.5913 8.08495L9.08335 7.23941C9.27462 7.12667 9.52328 7.12667 9.73371 7.23941L10.9005 7.89704C11.0918 8.00978 11.2257 8.21648 11.2257 8.44195V9.77598C11.2257 10.0015 11.111 10.2082 10.9005 10.3209L9.73371 10.9973C9.5424 11.1101 9.29374 11.1101 9.08335 10.9973L7.91652 10.3397C7.72521 10.227 7.5913 10.0203 7.5913 9.79478V8.93048L6.5775 9.51295V10.3773C6.5775 10.6027 6.69229 10.8094 6.90267 10.9222L9.10247 12.1623C9.29374 12.275 9.5424 12.275 9.75283 12.1623L11.9526 10.9222C12.1439 10.8094 12.2778 10.6027 12.2778 10.3773V7.87824C12.2778 7.65278 12.163 7.44611 11.9526 7.33338L9.73371 6.07446Z" fill="#8247E5"/>
</g>
</svg>
