<svg width="20" height="27" viewBox="0 0 20 27" fill="none" xmlns="http://www.w3.org/2000/svg">
<g id="Layer 2">
<path id="Vector" d="M12.754 26.2901C10.8942 26.2901 9.53669 25.8429 8.68155 24.9484C7.88938 24.1912 7.42967 23.1518 7.40292 22.0572C7.3933 21.7247 7.47049 21.3954 7.62691 21.1017C7.77281 20.8479 7.98357 20.6373 8.23767 20.4914C8.53302 20.3443 8.85854 20.2678 9.18858 20.2678C9.51862 20.2678 9.84415 20.3443 10.1395 20.4914C10.3931 20.6367 10.6029 20.8475 10.7468 21.1017C10.9078 21.394 10.9878 21.7238 10.9788 22.0572C10.9954 22.4554 10.881 22.8481 10.6531 23.1753C10.4631 23.4424 10.1915 23.6408 9.87902 23.7408C10.1846 24.1292 10.6169 24.3982 11.1007 24.5012C11.642 24.6581 12.2026 24.7388 12.7663 24.7409C13.5125 24.7474 14.2434 24.5293 14.8636 24.1149C15.507 23.6611 15.9868 23.0124 16.2319 22.265C16.5426 21.3755 16.6943 20.4383 16.6799 19.4963C16.7049 18.5143 16.539 17.5367 16.1912 16.6177C15.9296 15.8827 15.433 15.2541 14.7781 14.8288C14.1693 14.4442 13.4626 14.2424 12.7422 14.2475C12.1145 14.3006 11.5092 14.5057 10.9788 14.8451L9.67124 15.4996V14.8451L15.5477 6.97477H7.40292V15.1419C7.37991 15.7313 7.53608 16.3138 7.85089 16.8129C8.00321 17.0304 8.2092 17.2049 8.44892 17.3196C8.68864 17.4343 8.95396 17.4852 9.21918 17.4674C9.70922 17.4575 10.1831 17.2908 10.5711 16.9918C11.0109 16.67 11.3936 16.277 11.7033 15.8289C11.7312 15.7504 11.7826 15.6823 11.8505 15.6339C11.9051 15.5868 11.9748 15.5609 12.0469 15.5607C12.1884 15.5736 12.3223 15.6305 12.4297 15.7233C12.5658 15.8751 12.6399 16.0724 12.6374 16.2762C12.6216 16.4131 12.5971 16.5489 12.5641 16.6827C12.2747 17.3819 11.7897 17.983 11.1671 18.4142C10.5889 18.8048 9.90591 19.012 9.20772 19.0084C7.44432 19.0084 6.22268 18.6615 5.54282 17.9676C5.19337 17.5841 4.92406 17.1348 4.75064 16.6461C4.57722 16.1574 4.50318 15.6391 4.53285 15.1215V6.97477H0.390198V5.45731H4.55215V1.99738L3.59928 1.04541V0.269531H6.36432L7.40292 0.806277V5.45731L18.162 5.42464L19.2332 6.49797L12.6359 13.1165C13.0344 12.9564 13.4542 12.8551 13.8819 12.8156C14.7286 12.8526 15.5546 13.088 16.2933 13.5028C17.1486 13.9087 17.8694 14.5509 18.3703 15.3533C18.8191 16.0326 19.1368 16.7896 19.307 17.5854C19.4469 18.2131 19.522 18.8535 19.531 19.4965C19.5353 20.7236 19.2566 21.9353 18.7165 23.0376C18.2043 24.105 17.3422 24.9657 16.273 25.4771C15.1785 26.0156 13.9741 26.2938 12.754 26.2901Z" fill="#2C7DF7"/>
</g>
</svg>
